<svg width="67" height="66" viewBox="0 0 67 66" fill="none" xmlns="http://www.w3.org/2000/svg">
<g clip-path="url(#clip0_167_6013)">
<path d="M33.5 5.5C48.6635 5.5 61 17.8365 61 33C61 48.1635 48.6635 60.5 33.5 60.5C18.3365 60.5 6 48.1635 6 33C6 17.8365 18.3365 5.5 33.5 5.5ZM33.5 0C15.2758 0 0.5 14.7758 0.5 33C0.5 51.2243 15.2758 66 33.5 66C51.7243 66 66.5 51.2243 66.5 33C66.5 14.7758 51.7243 0 33.5 0ZM37.922 26.059L33.5 11L29.0697 26.0618C27.89 26.818 26.9385 27.8712 26.2675 29.106L11.5 33L26.2675 36.894C26.9357 38.1287 27.8872 39.1847 29.0697 39.9382L33.5 55L37.9495 39.9328C39.1265 39.1765 40.0698 38.1205 40.738 36.883L55.5 33L40.738 29.1143C40.067 27.8713 39.11 26.8153 37.922 26.059ZM33.5 37.125C31.223 37.125 29.375 35.277 29.375 33C29.375 30.723 31.223 28.875 33.5 28.875C35.777 28.875 37.625 30.723 37.625 33C37.625 35.277 35.777 37.125 33.5 37.125ZM47.9375 47.4375L40.8618 42.9303C41.8408 42.2043 42.7043 41.338 43.433 40.3618L47.9375 47.4375ZM40.6748 22.9322L47.9348 18.5653L43.5677 25.8225C42.7703 24.7033 41.794 23.7297 40.6748 22.9322ZM26.3335 43.076L19.0625 47.4375L23.4322 40.1748C24.2297 41.2967 25.2087 42.2757 26.3335 43.076ZM23.5697 25.641L19.0653 18.5653L26.141 23.0697C25.1593 23.7957 24.293 24.662 23.5697 25.641Z" fill="#E19517"/>
</g>
<defs>
<clipPath id="clip0_167_6013">
<rect width="66" height="66" fill="white" transform="translate(0.5)"/>
</clipPath>
</defs>
</svg>
