<svg width="179" height="143" viewBox="0 0 179 143" fill="none" xmlns="http://www.w3.org/2000/svg">
<path d="M6.25605 143C2.5776 143 0 140.211 0 137.083C0 134.858 1.29775 132.472 4.44815 130.8C20.4507 122.337 38.9772 93.0304 38.9772 74.9588C11.984 75.7811 0.25955 51.8822 0.25955 36.9029C0.25955 18.9743 15.8146 0 38.8161 0C67.8231 0 82.0446 22.7638 82.0446 47.4313C82.0446 100.887 20.8803 143 6.25605 143ZM103.211 143C99.5419 143 96.9553 140.211 96.9553 137.083C96.9553 134.858 98.2531 132.472 101.403 130.8C117.406 122.337 135.933 93.0304 135.933 74.9588C108.948 75.7811 97.2149 51.8822 97.2149 36.9029C97.2149 18.9743 112.779 0 135.771 0C164.778 0 179 22.7638 179 47.4313C179 100.887 117.845 143 103.211 143Z" fill="#99662E"/>
</svg>
