<svg width="208" height="208" viewBox="0 0 208 208" fill="none" xmlns="http://www.w3.org/2000/svg">
<g clip-path="url(#clip0_630_2070)">
<path d="M137.887 115.613L160.732 80.7213L156.797 77.2027L124.965 104.061C119.115 102.865 112.814 104.65 108.55 109.417C102.171 116.549 102.787 127.513 109.928 133.891C117.069 140.27 128.024 139.655 134.403 132.513C138.667 127.747 139.733 121.29 137.887 115.613ZM104 23.348V0H138.667V23.348C126.195 21.242 116.203 21.2853 104 23.348ZM180.709 41.236L192.903 29.042L205.157 41.2967L193.709 52.7453C189.705 48.5507 185.354 44.7113 180.709 41.236ZM17.3333 78H86.6667V95.3333H17.3333V78ZM0 112.667H69.3333V130H0V112.667ZM26 147.333H86.6667V164.667H26V147.333ZM208 121.333C208 169.199 169.199 208 121.333 208C97.1533 208 75.4 197.99 59.7047 182H88.1313C97.994 187.469 109.269 190.667 121.333 190.667C159.562 190.667 190.667 159.562 190.667 121.333C190.667 83.1047 159.562 52 121.333 52C109.269 52 97.994 55.198 88.1313 60.6667H59.7047C75.4 44.6767 97.1533 34.6667 121.333 34.6667C169.199 34.6667 208 73.4673 208 121.333Z" fill="#E19517"/>
</g>
<defs>
<clipPath id="clip0_630_2070">
<rect width="208" height="208" fill="white"/>
</clipPath>
</defs>
</svg>
